<?xml version="1.0" encoding="UTF-8"?>
<level>
  <owner>Fistachka</owner>
  <repo>september2</repo>
  <version>v1.0.8</version>
  <next number="1" owner="Fistachka" repo="september2"/>
  <readme>
    <ru>890a7fca940d62be42e83a7508830b6012ef1f13b9a6159e56d335c847b0013c</ru>
    <en>959a3745d8a12db746aa649811dfc756bcfdb416d535ebb600c249a22459e6bc</en>
  </readme>
  <license>b1b99f5538d1fd3702219bff50c665196dfa42f6ee755c37fe41a6178d6bc6e5</license>
  <exercise number="1">
    <scale>minor</scale>
    <bpm>68</bpm>
    <lowestNote>85</lowestNote>
    <tonalities>6</tonalities>
    <video name="12t.mp4" size="1379099" type="video/mp4" volume="0.5">ae48d386d7ef57e23a3739504115efce33965c066331816bcca1ecf6dda28831</video>
    <notes>
      <note number="1" values="85" ticks="57" durationTicks="27" ppq="96" velocity="0.843"/>
      <note number="2" values="3" ticks="82" durationTicks="22" ppq="96" velocity="0.913"/>
      <note number="3" values="2" ticks="106" durationTicks="24" ppq="96" velocity="0.834"/>
      <note number="4" values="3" ticks="130" durationTicks="100" ppq="96" velocity="0.864"/>
      <note number="5" values="2" ticks="266" durationTicks="25" ppq="96" velocity="0.913"/>
      <note number="6" values="3" ticks="288" durationTicks="25" ppq="96" velocity="0.839"/>
      <note number="7" values="2" ticks="312" durationTicks="24" ppq="96" velocity="0.839"/>
      <note number="8" values="3" ticks="337" durationTicks="62" ppq="96" velocity="0.839"/>
    </notes>
  </exercise>
  <exercise number="2">
    <scale>minor</scale>
    <bpm>68</bpm>
    <lowestNote>85</lowestNote>
    <tonalities>6</tonalities>
    <video name="13t.mp4" size="1339184" type="video/mp4" volume="0.5">6d80fe8756517622cab5a6bc1d2fb3bd74276e2273136db2c13f27d95dd90e7b</video>
    <notes>
      <note number="1" values="3" ticks="65" durationTicks="27" ppq="96" velocity="0.843"/>
      <note number="2" values="2" ticks="90" durationTicks="22" ppq="96" velocity="0.906"/>
      <note number="3" values="3" ticks="114" durationTicks="24" ppq="96" velocity="0.827"/>
      <note number="4" values="4" ticks="138" durationTicks="54" ppq="96" velocity="0.858"/>
      <note number="5" values="3" ticks="192" durationTicks="66" ppq="96" velocity="0.906"/>
      <note number="6" values="2" ticks="264" durationTicks="25" ppq="96" velocity="0.835"/>
      <note number="7" values="1" ticks="288" durationTicks="24" ppq="96" velocity="0.835"/>
      <note number="8" values="87" ticks="313" durationTicks="126" ppq="96" velocity="0.835"/>
    </notes>
  </exercise>
  <exercise number="3">
    <scale>minor</scale>
    <bpm>68</bpm>
    <lowestNote>85</lowestNote>
    <tonalities>6</tonalities>
    <video name="14t.mp4" size="1179752" type="video/mp4" volume="0.5">e874082ea427150bc6526c667e13c0d737fd812208a284b4f89ac7f1d41a5223</video>
    <notes>
      <note number="1" values="85" ticks="57" durationTicks="27" ppq="96" velocity="0.843"/>
      <note number="2" values="3" ticks="82" durationTicks="22" ppq="96" velocity="0.906"/>
      <note number="3" values="2" ticks="106" durationTicks="24" ppq="96" velocity="0.827"/>
      <note number="4" values="3" ticks="133" durationTicks="59" ppq="96" velocity="0.858"/>
      <note number="5" values="2" ticks="213" durationTicks="25" ppq="96" velocity="0.906"/>
      <note number="6" values="3" ticks="240" durationTicks="25" ppq="96" velocity="0.835"/>
      <note number="7" values="2" ticks="312" durationTicks="24" ppq="96" velocity="0.835"/>
      <note number="8" values="3" ticks="337" durationTicks="62" ppq="96" velocity="0.835"/>
    </notes>
  </exercise>
  <exercise number="4">
    <scale>minor</scale>
    <bpm>68</bpm>
    <lowestNote>86</lowestNote>
    <tonalities>6</tonalities>
    <video name="15t.mp4" size="1075672" type="video/mp4" volume="0.5">abb44667e298943e43f9d079f6fad5d3d4d35576b5fb718b0c6f65c63b6be56e</video>
    <notes>
      <note number="1" values="3" ticks="59" durationTicks="27" ppq="96" velocity="0.843"/>
      <note number="2" values="2" ticks="84" durationTicks="22" ppq="96" velocity="0.906"/>
      <note number="3" values="3" ticks="108" durationTicks="33" ppq="96" velocity="0.827"/>
      <note number="4" values="4" ticks="141" durationTicks="40" ppq="96" velocity="0.85"/>
      <note number="5" values="3" ticks="181" durationTicks="71" ppq="96" velocity="0.906"/>
      <note number="6" values="2" ticks="258" durationTicks="25" ppq="96" velocity="0.835"/>
      <note number="7" values="6" ticks="282" durationTicks="24" ppq="96" velocity="0.835"/>
      <note number="8" values="5" ticks="307" durationTicks="126" ppq="96" velocity="0.835"/>
    </notes>
  </exercise>
  <exercise number="5">
    <scale>minor</scale>
    <bpm>68</bpm>
    <lowestNote>85</lowestNote>
    <tonalities>6</tonalities>
    <video name="16t.mp4" size="869552" type="video/mp4" volume="0.5">861d24673ec3ecd0f6877fa306219a23ca0e743a9dc74591f8f23169d6c33472</video>
    <notes>
      <note number="1" values="85" ticks="59" durationTicks="24" ppq="96" velocity="0.889"/>
      <note number="2" values="3" ticks="83" durationTicks="26" ppq="96" velocity="0.795"/>
      <note number="3" values="2" ticks="107" durationTicks="27" ppq="96" velocity="0.827"/>
      <note number="4" values="3" ticks="134" durationTicks="58" ppq="96" velocity="0.864"/>
      <note number="5" values="85" ticks="265" durationTicks="27" ppq="96" velocity="0.795"/>
      <note number="6" values="3" ticks="289" durationTicks="25" ppq="96" velocity="0.857"/>
      <note number="7" values="2" ticks="311" durationTicks="26" ppq="96" velocity="0.857"/>
      <note number="8" values="3" ticks="336" durationTicks="95" ppq="96" velocity="0.857"/>
    </notes>
  </exercise>
  <exercise number="6">
    <scale>minor</scale>
    <bpm>68</bpm>
    <lowestNote>86</lowestNote>
    <tonalities>6</tonalities>
    <video name="17t.mp4" size="593191" type="video/mp4" volume="0.5">8124279a7114a522a242f655747c4672390d9dd2bcf707e8037a62a96a263c5b</video>
    <notes>
      <note number="1" values="3" ticks="57" durationTicks="27" ppq="96" velocity="0.843"/>
      <note number="2" values="2" ticks="82" durationTicks="22" ppq="96" velocity="0.906"/>
      <note number="3" values="3" ticks="106" durationTicks="24" ppq="96" velocity="0.827"/>
      <note number="4" values="4" ticks="130" durationTicks="28" ppq="96" velocity="0.858"/>
      <note number="5" values="3" ticks="154" durationTicks="25" ppq="96" velocity="0.906"/>
      <note number="6" values="2" ticks="215" durationTicks="46" ppq="96" velocity="0.835"/>
      <note number="7" values="6" ticks="288" durationTicks="24" ppq="96" velocity="0.835"/>
      <note number="8" values="5" ticks="311" durationTicks="62" ppq="96" velocity="0.835"/>
    </notes>
  </exercise>
  <exercise number="7">
    <scale>minor</scale>
    <bpm>68</bpm>
    <lowestNote>85</lowestNote>
    <tonalities>6</tonalities>
    <video name="18t.mp4" size="768832" type="video/mp4" volume="0.5">6f6bf4ad4ecb6e52b4ef7d971c62efda1ade84582bb1d8668e085c78b383c1e5</video>
    <notes>
      <note number="1" values="1" ticks="57" durationTicks="27" ppq="96" velocity="0.843"/>
      <note number="2" values="1" ticks="82" durationTicks="22" ppq="96" velocity="0.906"/>
      <note number="3" values="2" ticks="106" durationTicks="24" ppq="96" velocity="0.827"/>
      <note number="4" values="3" ticks="132" durationTicks="35" ppq="96" velocity="0.858"/>
      <note number="5" values="2" ticks="192" durationTicks="25" ppq="96" velocity="0.906"/>
      <note number="6" values="1" ticks="215" durationTicks="55" ppq="96" velocity="0.835"/>
      <note number="7" values="5" ticks="312" durationTicks="24" ppq="96" velocity="0.835"/>
      <note number="8" values="4" ticks="337" durationTicks="62" ppq="96" velocity="0.835"/>
    </notes>
  </exercise>
  <exercise number="8">
    <scale>minor</scale>
    <bpm>68</bpm>
    <lowestNote>85</lowestNote>
    <tonalities>6</tonalities>
    <video name="19t.mp4" size="818554" type="video/mp4" volume="0.5">062805e8a1d43d1eac4a077e8beadc1674e92649bf4319b452fbac9569fc2f99</video>
    <notes>
      <note number="1" values="4" ticks="117" durationTicks="13" ppq="96" velocity="0.889"/>
      <note number="2" values="4" ticks="143" durationTicks="15" ppq="96" velocity="0.944"/>
      <note number="3" values="4" ticks="168" durationTicks="46" ppq="96" velocity="0.847"/>
      <note number="4" values="5" ticks="215" durationTicks="47" ppq="96" velocity="0.906"/>
      <note number="5" values="2" ticks="266" durationTicks="26" ppq="96" velocity="0.827"/>
      <note number="6" values="3" ticks="295" durationTicks="119" ppq="96" velocity="0.874"/>
    </notes>
  </exercise>
  <exercise number="9">
    <scale>minor</scale>
    <bpm>68</bpm>
    <lowestNote>85</lowestNote>
    <tonalities>6</tonalities>
    <video name="20t.mp4" size="1000138" type="video/mp4" volume="0.5">2f144d5ab53b3f886e6c4dfc7bd29aa6526fab3442e75cfee3cf5c5af613068e</video>
    <notes>
      <note number="1" values="85" ticks="59" durationTicks="24" ppq="96" velocity="0.882"/>
      <note number="2" values="3" ticks="83" durationTicks="26" ppq="96" velocity="0.787"/>
      <note number="3" values="2" ticks="107" durationTicks="27" ppq="96" velocity="0.827"/>
      <note number="4" values="3" ticks="134" durationTicks="58" ppq="96" velocity="0.858"/>
      <note number="5" values="3" ticks="265" durationTicks="15" ppq="96" velocity="0.787"/>
      <note number="6" values="3" ticks="289" durationTicks="25" ppq="96" velocity="0.85"/>
      <note number="7" values="2" ticks="311" durationTicks="26" ppq="96" velocity="0.85"/>
      <note number="8" values="3" ticks="336" durationTicks="95" ppq="96" velocity="0.85"/>
    </notes>
  </exercise>
  <exercise number="10">
    <scale>minor</scale>
    <bpm>68</bpm>
    <lowestNote>86</lowestNote>
    <tonalities>6</tonalities>
    <video name="21t.mp4" size="914060" type="video/mp4" volume="0.5">7e549ca3e3973702e1e37fa84f4795b6096a2441ab6fcb81c147009c11af7706</video>
    <notes>
      <note number="1" values="3" ticks="25" durationTicks="27" ppq="96" velocity="0.843"/>
      <note number="2" values="2" ticks="50" durationTicks="22" ppq="96" velocity="0.906"/>
      <note number="3" values="3" ticks="74" durationTicks="24" ppq="96" velocity="0.827"/>
      <note number="4" values="4" ticks="98" durationTicks="28" ppq="96" velocity="0.85"/>
      <note number="5" values="3" ticks="122" durationTicks="25" ppq="96" velocity="0.906"/>
      <note number="6" values="2" ticks="183" durationTicks="46" ppq="96" velocity="0.835"/>
      <note number="7" values="6" ticks="256" durationTicks="24" ppq="96" velocity="0.835"/>
      <note number="8" values="5" ticks="279" durationTicks="62" ppq="96" velocity="0.835"/>
    </notes>
  </exercise>
  <exercise number="11">
    <scale>minor</scale>
    <bpm>68</bpm>
    <lowestNote>85</lowestNote>
    <tonalities>6</tonalities>
    <video name="22t.mp4" size="655814" type="video/mp4" volume="0.5">ed080d5642a5767e76db251b11b5c97df85febebf55fad0093d38f028ddf9b2b</video>
    <notes>
      <note number="1" values="85" ticks="33" durationTicks="27" ppq="96" velocity="0.843"/>
      <note number="2" values="86" ticks="58" durationTicks="22" ppq="96" velocity="0.906"/>
      <note number="3" values="3" ticks="82" durationTicks="24" ppq="96" velocity="0.827"/>
      <note number="4" values="85" ticks="108" durationTicks="35" ppq="96" velocity="0.85"/>
      <note number="5" values="86" ticks="168" durationTicks="25" ppq="96" velocity="0.906"/>
      <note number="6" values="3" ticks="191" durationTicks="55" ppq="96" velocity="0.835"/>
      <note number="7" values="4" ticks="266" durationTicks="24" ppq="96" velocity="0.835"/>
      <note number="8" values="2" ticks="288" durationTicks="62" ppq="96" velocity="0.835"/>
    </notes>
  </exercise>
  <exercise number="12">
    <scale>minor</scale>
    <bpm>68</bpm>
    <lowestNote>85</lowestNote>
    <tonalities>6</tonalities>
    <video name="23t.mp4" size="1644410" type="video/mp4" volume="0.5">e538e6f60fef027f8198cea6483d2f7d97133e7dc9b1d97b58476d2cf1794ea8</video>
    <notes>
      <note number="1" values="85" ticks="131" durationTicks="27" ppq="96" velocity="0.882"/>
      <note number="2" values="86" ticks="157" durationTicks="26" ppq="96" velocity="0.937"/>
      <note number="3" values="3" ticks="182" durationTicks="46" ppq="96" velocity="0.843"/>
      <note number="4" values="85" ticks="229" durationTicks="47" ppq="96" velocity="0.906"/>
      <note number="5" values="86" ticks="280" durationTicks="26" ppq="96" velocity="0.827"/>
      <note number="6" values="3" ticks="309" durationTicks="119" ppq="96" velocity="0.866"/>
    </notes>
  </exercise>
</level>
